<?xml version="1.0" encoding="UTF-8" standalone="no"?><!DOCTYPE svg PUBLIC "-//W3C//DTD SVG 1.1//EN" "http://www.w3.org/Graphics/SVG/1.1/DTD/svg11.dtd"><svg width="100%" height="100%" viewBox="0 0 256 128" version="1.1" xmlns="http://www.w3.org/2000/svg" xmlns:xlink="http://www.w3.org/1999/xlink" xml:space="preserve" xmlns:serif="http://www.serif.com/" style="fill-rule:evenodd;clip-rule:evenodd;stroke-linejoin:round;stroke-miterlimit:1.41421;"><path d="M90.486,128l-56.706,-39.706c-1.888,-1.322 -2.347,-3.928 -1.025,-5.816l26.743,-38.193c1.322,-1.888 3.928,-2.348 5.816,-1.026l81.778,57.262l47.447,0c1.171,0 2.229,0.483 2.987,1.259c0.111,0.114 1.386,1.258 3.135,3.153l20.117,20.117c0.814,0.814 1.221,1.882 1.222,2.95l-131.514,0Z" style="fill:#b1b1b1;fill-opacity:0.08;"/><path d="M90.486,128l38.148,-26.711c0.82,-0.574 1.775,-0.813 2.701,-0.744l0.017,-0.024l63.187,0c1.134,0 2.164,0.453 2.916,1.189c0.089,0.086 0.949,0.903 2.209,2.266l0,-0.04l21.114,21.114c0.814,0.814 1.221,1.882 1.222,2.95l-131.514,0Z" style="fill:#737373;fill-opacity:0.08;"/></svg>