<?xml version="1.0" encoding="UTF-8" standalone="no"?><!DOCTYPE svg PUBLIC "-//W3C//DTD SVG 1.1//EN" "http://www.w3.org/Graphics/SVG/1.1/DTD/svg11.dtd"><svg width="100%" height="100%" viewBox="0 0 502 64" version="1.1" xmlns="http://www.w3.org/2000/svg" xmlns:xlink="http://www.w3.org/1999/xlink" xml:space="preserve" xmlns:serif="http://www.serif.com/" style="fill-rule:evenodd;clip-rule:evenodd;stroke-linejoin:round;stroke-miterlimit:1.41421;"><g><g><path d="M71.952,45.455l0,-10.912l5.289,0l1.209,5.592c0.081,0.403 0.187,0.675 0.318,0.816c0.131,0.141 0.378,0.282 0.74,0.423c2.136,0.605 4.182,0.907 6.136,0.907c0.061,0 0.121,0 0.182,0c6.146,0 9.219,-2.328 9.219,-6.983c0,-1.188 -0.227,-2.221 -0.68,-3.098c-0.454,-0.876 -1.164,-1.602 -2.131,-2.176c-0.967,-0.574 -1.874,-1.028 -2.721,-1.36c-0.846,-0.333 -2.015,-0.701 -3.506,-1.104c-4.05,-1.188 -6.811,-2.267 -8.282,-3.234c-3.184,-2.096 -4.776,-5.33 -4.776,-9.703c0,-4.332 1.476,-7.602 4.428,-9.808c2.953,-2.207 6.806,-3.31 11.562,-3.31c4.091,0 8.071,0.756 11.94,2.267l0,11.154l-5.32,-0.484l-0.877,-5.138c-0.121,-0.625 -0.322,-1.018 -0.604,-1.179c-1.109,-0.665 -2.932,-0.998 -5.471,-0.998c-2.761,0 -4.862,0.569 -6.303,1.708c-1.44,1.139 -2.161,2.715 -2.161,4.73c0,0.907 0.187,1.733 0.559,2.479c0.373,0.746 0.786,1.345 1.24,1.799c0.453,0.453 1.153,0.906 2.1,1.36c0.947,0.453 1.748,0.791 2.403,1.012c0.655,0.222 1.607,0.524 2.857,0.907c1.652,0.504 2.902,0.907 3.748,1.209c0.846,0.302 1.96,0.826 3.34,1.572c1.38,0.746 2.423,1.531 3.128,2.358c0.706,0.826 1.335,1.939 1.89,3.34c0.554,1.4 0.831,2.987 0.831,4.76c0,4.615 -1.557,8.021 -4.67,10.217c-3.114,2.197 -7.149,3.295 -12.106,3.295c-2.599,0 -5.194,-0.257 -7.783,-0.771c-2.59,-0.514 -4.499,-1.063 -5.728,-1.647Z" style="fill:#fff;fill-rule:nonzero;"/><path d="M105.047,19.127l0.575,-4.02l10.7,0l0,20.675c0,2.237 0.282,3.859 0.846,4.867c0.565,1.007 1.663,1.511 3.295,1.511c2.922,0 5.793,-1.441 8.615,-4.322l0,-16.595c0,-0.504 -0.051,-0.836 -0.152,-0.997c-0.1,-0.162 -0.382,-0.283 -0.846,-0.363l-2.962,-0.756l0.544,-4.02l10.549,0l0,26.388c0,0.746 0.262,1.159 0.786,1.239l3.234,0.423l0,3.96l-9.793,0l-0.544,-3.778l-0.182,-0.061c-3.828,3.063 -7.687,4.595 -11.576,4.595c-3.265,0 -5.567,-0.837 -6.907,-2.509c-1.34,-1.673 -2.01,-4.353 -2.01,-8.04l0,-16.081c0,-0.504 -0.056,-0.836 -0.167,-0.997c-0.11,-0.162 -0.387,-0.283 -0.831,-0.363l-3.174,-0.756Z" style="fill:#fff;fill-rule:nonzero;"/><path d="M141.012,4.346l0.605,-3.959l10.791,0l0,17.44c3.506,-2.216 6.881,-3.325 10.126,-3.325c0.02,0 0.05,0 0.09,0c3.627,0 6.504,1.27 8.63,3.809c2.126,2.539 3.189,6.469 3.189,11.788c0,6.106 -1.169,10.595 -3.506,13.466c-2.338,2.872 -5.562,4.308 -9.673,4.308c-3.708,0 -6.791,-1.219 -9.249,-3.658l-0.242,0l-0.363,2.902l-6.861,0c0.524,-2.962 0.786,-5.834 0.786,-8.615c0,-0.1 0,-0.201 0,-0.302l0,-31.375c0,-0.705 -0.262,-1.139 -0.786,-1.3l-3.537,-1.179Zm11.456,34.217c2.519,2.358 5.078,3.536 7.678,3.536c4.614,0 6.922,-3.858 6.922,-11.576c0,-3.305 -0.57,-5.834 -1.708,-7.587c-1.139,-1.753 -2.736,-2.63 -4.791,-2.63c-2.519,0 -5.219,1.018 -8.101,3.053l0,15.204Z" style="fill:#fff;fill-rule:nonzero;"/><path d="M176.735,47.117l0,-3.899l3.537,-0.484c0.403,-0.04 0.67,-0.146 0.801,-0.317c0.131,-0.171 0.196,-0.479 0.196,-0.922l0,-34.67c0,-0.705 -0.272,-1.139 -0.816,-1.3l-3.537,-1.179l0.635,-3.959l10.821,0l0,41.108c0,0.504 0.056,0.826 0.167,0.967c0.11,0.141 0.387,0.232 0.831,0.272l3.476,0.423l0,3.96l-16.111,0Z" style="fill:#fff;fill-rule:nonzero;"/><path d="M196.415,47.117l0,-3.899l3.718,-0.484c0.403,-0.04 0.67,-0.146 0.801,-0.317c0.131,-0.171 0.197,-0.479 0.197,-0.922l0,-19.95c0,-0.705 -0.273,-1.138 -0.817,-1.299l-3.415,-1.179l0.635,-3.96l10.7,0l0,26.388c0,0.504 0.055,0.826 0.166,0.967c0.111,0.141 0.388,0.232 0.831,0.272l3.658,0.423l0,3.96l-16.474,0Zm2.841,-42.71c0,-1.451 0.403,-2.569 1.21,-3.355c0.806,-0.786 1.954,-1.179 3.445,-1.179c1.451,0 2.59,0.393 3.416,1.179c0.826,0.786 1.239,1.904 1.239,3.355c0,1.491 -0.413,2.635 -1.239,3.431c-0.826,0.795 -1.965,1.193 -3.416,1.193c-1.491,0 -2.639,-0.398 -3.445,-1.193c-0.807,-0.796 -1.21,-1.94 -1.21,-3.431Z" style="fill:#fff;fill-rule:nonzero;"/><path d="M215.952,19.067l0.634,-3.96l9.159,0l0.484,3.476l0.272,0.061c3.627,-2.761 7.153,-4.142 10.579,-4.142c3.506,0 5.965,1.24 7.375,3.718c3.829,-2.478 7.416,-3.718 10.761,-3.718c3.265,0 5.597,0.907 6.998,2.721c1.4,1.813 2.1,4.433 2.1,7.859l0,16.413c0,0.504 0.051,0.826 0.152,0.967c0.1,0.141 0.382,0.232 0.846,0.272l3.385,0.423l0,3.96l-15.718,0l0,-3.899l3.235,-0.423c0.665,-0.081 0.987,-0.494 0.967,-1.24l0,-14.569c0,-2.096 -0.257,-3.703 -0.771,-4.821c-0.514,-1.118 -1.557,-1.678 -3.128,-1.678c-2.519,0 -5.048,0.827 -7.587,2.479c0.161,0.947 0.242,2.106 0.242,3.476l0,15.053c0,0.504 0.05,0.826 0.151,0.967c0.1,0.141 0.372,0.232 0.816,0.272l2.871,0.423l0,3.96l-15.234,0l0,-3.899l3.265,-0.423c0.403,-0.041 0.67,-0.156 0.801,-0.348c0.131,-0.191 0.196,-0.489 0.196,-0.892l0,-14.236c0,-1.109 -0.03,-1.995 -0.091,-2.66c-0.06,-0.665 -0.201,-1.361 -0.423,-2.086c-0.221,-0.725 -0.614,-1.264 -1.179,-1.617c-0.564,-0.353 -1.279,-0.529 -2.146,-0.529c-2.438,0 -4.997,1.058 -7.677,3.174l0,17.894c0,0.504 0.055,0.826 0.166,0.967c0.111,0.141 0.388,0.232 0.831,0.272l3.023,0.423l0,3.96l-15.083,0l0,-3.899l2.962,-0.484c0.403,-0.04 0.67,-0.146 0.801,-0.317c0.131,-0.171 0.196,-0.479 0.196,-0.922l0,-19.95c0,-0.705 -0.272,-1.138 -0.816,-1.299l-3.415,-1.179Z" style="fill:#fff;fill-rule:nonzero;"/><path d="M271.113,30.946c0,-5.36 1.36,-9.441 4.08,-12.242c2.721,-2.801 6.227,-4.202 10.519,-4.202c8.746,0 13.119,4.968 13.119,14.902c0,1.229 -0.061,2.428 -0.182,3.597l-19.979,0c0.161,3.023 0.901,5.305 2.221,6.847c1.32,1.541 3.421,2.312 6.302,2.312c2.6,0 5.633,-0.726 9.099,-2.176l1.995,4.957c-3.789,1.934 -7.748,2.912 -11.879,2.932c-10.197,-0.02 -15.295,-5.663 -15.295,-16.927Zm7.617,-3.083l12.997,0c0,-5.32 -2.045,-7.98 -6.136,-7.98c-1.894,0 -3.471,0.66 -4.73,1.98c-1.259,1.32 -1.97,3.32 -2.131,6Z" style="fill:#fff;fill-rule:nonzero;"/></g><g><path d="M323.675,47.19l0,-3.966l3.936,-0.423c0.424,-0.021 0.691,-0.111 0.802,-0.273c0.111,-0.161 0.167,-0.484 0.167,-0.969l0,-33.543c0,-0.484 -0.056,-0.807 -0.167,-0.968c-0.111,-0.162 -0.378,-0.253 -0.802,-0.273l-3.936,-0.454l0,-4.026l13.956,0l12.715,29.032l0.182,0l12.896,-29.032l13.351,0l0,3.965l-4.178,0.515c-0.464,0.061 -0.742,0.151 -0.832,0.273c-0.091,0.121 -0.137,0.423 -0.137,0.908l0,33.603c0,0.424 0.061,0.722 0.182,0.893c0.121,0.172 0.384,0.268 0.787,0.288l4.178,0.484l0,3.966l-18.043,0l0,-3.966l5.146,-0.423c0.424,-0.021 0.692,-0.111 0.803,-0.273c0.111,-0.161 0.166,-0.484 0.166,-0.969l0,-28.215l-0.181,0l-10.778,23.916l-8.053,0l-10.868,-24.218l-0.121,0l0,28.457c0,0.524 0.051,0.857 0.152,0.999c0.1,0.141 0.383,0.222 0.847,0.242l5.328,0.484l0,3.966l-17.498,0Z" style="fill:#fff;fill-rule:nonzero;"/><path d="M378.891,30.994c0,-2.725 0.379,-5.152 1.135,-7.281c0.757,-2.129 1.807,-3.855 3.149,-5.177c1.342,-1.322 2.886,-2.321 4.632,-2.997c1.745,-0.676 3.648,-1.014 5.706,-1.014c4.117,0 7.336,1.196 9.657,3.588c2.321,2.391 3.482,6.17 3.482,11.337c0,1.211 -0.061,2.412 -0.182,3.602l-20.011,0c0.162,3.028 0.904,5.313 2.226,6.857c1.322,1.544 3.426,2.316 6.312,2.316c1.473,0 2.881,-0.166 4.223,-0.499c1.342,-0.333 2.972,-0.893 4.889,-1.68l1.998,4.964c-3.875,1.958 -7.841,2.937 -11.898,2.937c-2.26,0 -4.268,-0.288 -6.024,-0.863c-1.756,-0.575 -3.209,-1.357 -4.359,-2.346c-1.151,-0.989 -2.099,-2.21 -2.846,-3.663c-0.747,-1.453 -1.282,-3.002 -1.604,-4.647c-0.323,-1.645 -0.485,-3.456 -0.485,-5.434Zm7.629,-3.088l13.018,0c0,-2.846 -0.56,-4.889 -1.681,-6.13c-1.12,-1.242 -2.608,-1.862 -4.465,-1.862c-1.897,0 -3.481,0.666 -4.753,1.998c-1.271,1.332 -1.978,3.33 -2.119,5.994Z" style="fill:#fff;fill-rule:nonzero;"/><path d="M410.709,19.096l0.635,-3.965l9.234,0l0.696,4.541l0.182,0.06c2.684,-3.471 5.721,-5.207 9.112,-5.207c1.877,0 3.491,0.182 4.844,0.545l0,10.172l-5.601,-0.242l-0.727,-3.845c-0.04,-0.283 -0.111,-0.469 -0.211,-0.56c-0.101,-0.091 -0.283,-0.136 -0.545,-0.136c-1.05,0 -2.145,0.338 -3.285,1.014c-1.14,0.676 -2.134,1.418 -2.982,2.225l0,17.801c0,0.504 0.061,0.832 0.182,0.984c0.121,0.151 0.413,0.237 0.878,0.257l5.842,0.484l0,3.966l-17.982,0l0,-4.026l2.967,-0.363c0.444,-0.061 0.721,-0.167 0.832,-0.318c0.111,-0.152 0.167,-0.46 0.167,-0.924l0,-19.98c0,-0.646 -0.273,-1.08 -0.818,-1.302l-3.42,-1.181Z" style="fill:#fff;fill-rule:nonzero;"/><path d="M438.409,53.517c0,-1.352 0.313,-2.512 0.938,-3.481c0.626,-0.969 1.574,-2.059 2.846,-3.27c-1.897,-0.807 -2.846,-2.089 -2.846,-3.844c0,-1.211 0.515,-2.392 1.544,-3.542l1.362,-1.575c0.929,-1.049 1.615,-1.806 2.059,-2.27c-1.473,-0.807 -2.649,-2.003 -3.527,-3.588c-0.878,-1.584 -1.317,-3.425 -1.317,-5.524c0,-3.532 1.206,-6.398 3.618,-8.598c2.412,-2.2 5.777,-3.3 10.096,-3.3c2.422,0 4.36,0.202 5.813,0.606l11.292,0l0,4.541l-5.813,0.363c1.554,2.018 2.331,4.147 2.331,6.388c0,3.491 -1.216,6.226 -3.648,8.204c-2.432,1.978 -5.535,2.966 -9.309,2.966c-2.22,0 -3.956,-0.191 -5.207,-0.575l-2.846,4.723l7.629,0.363c2.604,0.121 4.607,0.247 6.01,0.379c1.402,0.131 2.881,0.373 4.435,0.726c1.554,0.353 2.684,0.823 3.39,1.408c0.707,0.585 1.297,1.377 1.771,2.376c0.475,0.999 0.712,2.246 0.712,3.739c0,3.31 -1.413,5.873 -4.239,7.69c-2.825,1.816 -6.912,2.724 -12.26,2.724c-5.248,0 -9.032,-0.651 -11.353,-1.952c-2.321,-1.302 -3.481,-3.194 -3.481,-5.677Zm6.327,-1.12c0,1.373 0.737,2.346 2.21,2.922c1.473,0.575 3.633,0.862 6.478,0.862c0.989,0 1.928,-0.05 2.816,-0.151c0.888,-0.101 1.857,-0.293 2.906,-0.575c1.049,-0.283 1.887,-0.742 2.513,-1.378c0.625,-0.635 0.938,-1.417 0.938,-2.346c0,-0.444 -0.055,-0.827 -0.166,-1.15c-0.111,-0.323 -0.313,-0.596 -0.606,-0.818c-0.292,-0.222 -0.565,-0.398 -0.817,-0.529c-0.252,-0.132 -0.661,-0.238 -1.226,-0.318c-0.565,-0.081 -1.03,-0.136 -1.393,-0.167c-0.363,-0.03 -0.938,-0.075 -1.725,-0.136l-9.567,-0.545c-1.574,1.655 -2.361,3.098 -2.361,4.329Zm1.635,-26.096c0,1.898 0.56,3.406 1.68,4.526c1.12,1.12 2.891,1.681 5.313,1.681c2.139,0 3.86,-0.576 5.161,-1.726c1.302,-1.15 1.953,-2.684 1.953,-4.602c0,-2.119 -0.61,-3.754 -1.832,-4.904c-1.221,-1.15 -2.921,-1.725 -5.101,-1.725c-2.179,0 -3.92,0.565 -5.222,1.695c-1.302,1.13 -1.952,2.815 -1.952,5.055Z" style="fill:#fff;fill-rule:nonzero;"/><path d="M473.132,30.994c0,-2.725 0.379,-5.152 1.136,-7.281c0.756,-2.129 1.806,-3.855 3.148,-5.177c1.342,-1.322 2.886,-2.321 4.632,-2.997c1.746,-0.676 3.648,-1.014 5.706,-1.014c4.118,0 7.337,1.196 9.658,3.588c2.321,2.391 3.481,6.17 3.481,11.337c0,1.211 -0.06,2.412 -0.182,3.602l-20.01,0c0.161,3.028 0.903,5.313 2.225,6.857c1.322,1.544 3.426,2.316 6.312,2.316c1.473,0 2.881,-0.166 4.223,-0.499c1.342,-0.333 2.972,-0.893 4.889,-1.68l1.998,4.964c-3.875,1.958 -7.841,2.937 -11.897,2.937c-2.261,0 -4.269,-0.288 -6.025,-0.863c-1.756,-0.575 -3.209,-1.357 -4.359,-2.346c-1.15,-0.989 -2.099,-2.21 -2.846,-3.663c-0.747,-1.453 -1.281,-3.002 -1.604,-4.647c-0.323,-1.645 -0.485,-3.456 -0.485,-5.434Zm7.629,-3.088l13.018,0c0,-2.846 -0.56,-4.889 -1.68,-6.13c-1.12,-1.242 -2.609,-1.862 -4.466,-1.862c-1.897,0 -3.481,0.666 -4.753,1.998c-1.271,1.332 -1.977,3.33 -2.119,5.994Z" style="fill:#fff;fill-rule:nonzero;"/></g><g><path d="M23.234,31.422c-0.215,0.015 -0.438,-0.041 -0.628,-0.174l-22.19,-15.537c-0.441,-0.31 -0.549,-0.919 -0.239,-1.361l6.256,-8.934c0.309,-0.442 0.919,-0.55 1.36,-0.24l19.131,13.395l11.099,0c0.274,0 0.521,0.113 0.699,0.294c0.026,0.027 0.324,0.295 0.733,0.738l4.706,4.706c0.381,0.381 0.381,1 0,1.382l-4.948,4.947l0,-0.005c-0.29,0.313 -0.487,0.501 -0.508,0.521c-0.176,0.172 -0.417,0.278 -0.682,0.278l-14.781,0l-0.008,-0.01Z" style="fill:#88d9d9;"/><path d="M23.238,18.577l0.004,-0.006l14.781,0c0.265,0 0.506,0.106 0.682,0.278c0.021,0.02 0.222,0.211 0.517,0.53l0,-0.009l4.939,4.939c0.381,0.381 0.381,1 0,1.382l-4.67,4.669c-0.427,0.467 -0.743,0.75 -0.769,0.777c-0.178,0.182 -0.425,0.295 -0.699,0.295l-11.106,0l-19.124,13.39c-0.441,0.31 -1.051,0.202 -1.36,-0.239l-6.256,-8.935c-0.31,-0.442 -0.202,-1.051 0.239,-1.361l22.19,-15.537c0.191,-0.134 0.415,-0.19 0.632,-0.173Z" style="fill:#00e6e7;"/></g></g></svg>